<svg width="218" height="56" viewBox="0 0 218 56" fill="none" xmlns="http://www.w3.org/2000/svg">
<path d="M1.03906 1.41116V17.7256C1.03906 17.9908 1.14442 18.2451 1.33196 18.4327L22.1926 39.2933C22.566 39.6667 22.5847 40.266 22.2353 40.662L16.0518 47.6699C15.5811 48.2034 15.8023 49.0438 16.4745 49.2766L27.5926 53.1251C28.1274 53.3102 28.7091 53.0151 28.8755 52.4742L32.6162 40.317C32.6875 40.0853 32.8405 39.8874 33.0468 39.7601L43.5253 33.293C43.8204 33.1109 44.0001 32.7889 44.0001 32.4421V23.5113C44.0001 23.1902 44.1543 22.8886 44.4146 22.7006L51.3522 17.6902C52.0251 17.2042 51.8472 16.1574 51.0516 15.9209L41.5885 13.1086C41.2478 13.0073 40.8789 13.0945 40.6197 13.3376L33.3064 20.1937C32.967 20.5119 32.4531 20.554 32.0664 20.2954L2.59509 0.579991C1.93064 0.135497 1.03906 0.611741 1.03906 1.41116Z" fill="#488FE0"/>
<path d="M27.8163 2.8686L22.4525 10.0035C22.1078 10.4621 22.2188 11.1161 22.6955 11.4353L31.8176 17.543C32.2144 17.8086 32.7435 17.7568 33.0811 17.4192L38.468 12.0323C38.6394 11.8609 38.7427 11.633 38.7587 11.3911L39.3954 1.75691C39.4383 1.1074 38.8591 0.590658 38.2187 0.707099L28.4367 2.48563C28.1891 2.53066 27.9675 2.66741 27.8163 2.8686Z" fill="#2A76C7"/>
<path d="M96.488 30.864C96.7653 30.864 96.9787 30.992 97.128 31.248C97.2987 31.504 97.384 31.856 97.384 32.304C97.384 33.1573 97.1813 33.8187 96.776 34.288C95.9013 35.3547 94.9307 36.272 93.864 37.04C92.8187 37.7867 91.7627 38.16 90.696 38.16C89.3093 38.16 88.296 37.6693 87.656 36.688C87.0373 35.7067 86.728 34.4053 86.728 32.784C86.728 31.952 86.8133 30.928 86.984 29.712C87.176 28.496 87.4213 27.3013 87.72 26.128C85.5867 26.128 83.0587 26.224 80.136 26.416C79.6667 29.4027 79.432 32.1867 79.432 34.768C79.432 36.752 79.5387 38.8213 79.752 40.976C79.9867 43.152 80.328 44.24 80.776 44.24C80.9893 44.24 81.2133 43.8667 81.448 43.12C81.6827 42.3733 81.8747 41.3493 82.024 40.048C82.1733 38.7467 82.248 37.3067 82.248 35.728C82.248 34 82.152 32.1333 81.96 30.128C81.9173 29.5307 82.0133 29.0933 82.248 28.816C82.504 28.5173 82.8773 28.368 83.368 28.368C83.816 28.368 84.1467 28.4853 84.36 28.72C84.5733 28.9547 84.7013 29.3493 84.744 29.904C84.8507 31.4613 84.904 33.3173 84.904 35.472C84.904 38.9493 84.4773 41.9253 83.624 44.4C82.792 46.8747 81.4907 48.112 79.72 48.112C78.2053 48.112 77.1173 47.0133 76.456 44.816C75.7947 42.64 75.464 39.3653 75.464 34.992C75.464 32.4107 75.6667 29.648 76.072 26.704C75.9227 26.7253 75.7307 26.736 75.496 26.736C74.8347 26.736 74.3867 26.6187 74.152 26.384C73.9387 26.1493 73.832 25.7867 73.832 25.296C73.832 24.7627 73.9707 24.336 74.248 24.016C74.5467 23.696 75.1013 23.504 75.912 23.44C76.0613 23.4187 76.296 23.408 76.616 23.408C77.192 20.528 77.928 17.9147 78.824 15.568C79.72 13.2213 80.744 11.3653 81.896 10C83.048 8.61333 84.264 7.92 85.544 7.92C86.5467 7.92 87.3147 8.31466 87.848 9.104C88.4027 9.872 88.68 10.864 88.68 12.08C88.68 16.368 86.952 20.016 83.496 23.024C86.0987 22.9173 88.2 22.864 89.8 22.864C90.3973 22.864 90.888 22.9813 91.272 23.216C91.656 23.4293 91.848 23.856 91.848 24.496C91.848 24.9227 91.7733 25.5733 91.624 26.448C91.496 27.3227 91.3467 28.1973 91.176 29.072C90.792 30.8853 90.6 32.08 90.6 32.656C90.6 33.296 90.6853 33.7867 90.856 34.128C91.0267 34.4693 91.3147 34.64 91.72 34.64C92.0827 34.64 92.5413 34.3947 93.096 33.904C93.672 33.392 94.5147 32.528 95.624 31.312C95.88 31.0133 96.168 30.864 96.488 30.864ZM84.936 10.992C84.424 10.992 83.7733 12.1013 82.984 14.32C82.1947 16.5387 81.48 19.2267 80.84 22.384C81.9067 21.6373 82.792 20.7093 83.496 19.6C84.2213 18.4907 84.7547 17.3493 85.096 16.176C85.4587 14.9813 85.64 13.8827 85.64 12.88C85.64 11.6213 85.4053 10.992 84.936 10.992ZM91.144 20.976C90.248 20.976 89.576 20.7733 89.128 20.368C88.68 19.9413 88.456 19.3547 88.456 18.608C88.456 17.8613 88.744 17.2427 89.32 16.752C89.9173 16.24 90.6533 15.984 91.528 15.984C92.3173 15.984 92.9573 16.176 93.448 16.56C93.9387 16.944 94.184 17.488 94.184 18.192C94.184 19.0453 93.9067 19.728 93.352 20.24C92.7973 20.7307 92.0613 20.976 91.144 20.976ZM97.058 38.16C96.2473 38.16 95.6713 37.7333 95.33 36.88C95.01 36.0267 94.85 34.6613 94.85 32.784C94.85 30.0107 95.2447 27.376 96.034 24.88C96.226 24.2613 96.5353 23.8133 96.962 23.536C97.41 23.2373 98.0287 23.088 98.818 23.088C99.2447 23.088 99.5433 23.1413 99.714 23.248C99.8847 23.3547 99.97 23.5573 99.97 23.856C99.97 24.1973 99.81 24.9653 99.49 26.16C99.2767 27.0133 99.106 27.76 98.978 28.4C98.85 29.04 98.7433 29.8293 98.658 30.768C99.362 28.9333 100.151 27.44 101.026 26.288C101.901 25.136 102.754 24.3147 103.586 23.824C104.439 23.3333 105.218 23.088 105.922 23.088C107.309 23.088 108.002 23.7813 108.002 25.168C108.002 26 107.767 27.504 107.298 29.68C106.893 31.536 106.69 32.7627 106.69 33.36C106.69 34.2133 106.999 34.64 107.618 34.64C108.045 34.64 108.546 34.384 109.122 33.872C109.719 33.3387 110.509 32.4853 111.49 31.312C111.746 31.0133 112.034 30.864 112.354 30.864C112.631 30.864 112.845 30.992 112.994 31.248C113.165 31.504 113.25 31.856 113.25 32.304C113.25 33.1573 113.047 33.8187 112.642 34.288C111.725 35.4187 110.733 36.3467 109.666 37.072C108.621 37.7973 107.426 38.16 106.082 38.16C104.994 38.16 104.173 37.8507 103.618 37.232C103.063 36.592 102.786 35.6747 102.786 34.48C102.786 33.8827 102.935 32.816 103.234 31.28C103.511 29.936 103.65 29.008 103.65 28.496C103.65 28.1547 103.533 27.984 103.298 27.984C103.021 27.984 102.626 28.3467 102.114 29.072C101.623 29.776 101.111 30.7147 100.578 31.888C100.066 33.0613 99.65 34.2987 99.33 35.6C99.0953 36.6027 98.818 37.2853 98.498 37.648C98.1993 37.9893 97.7193 38.16 97.058 38.16ZM128.837 30.864C129.114 30.864 129.328 30.992 129.477 31.248C129.648 31.504 129.733 31.856 129.733 32.304C129.733 33.1573 129.53 33.8187 129.125 34.288C128.25 35.3547 127.29 36.272 126.245 37.04C125.2 37.7867 124.165 38.16 123.141 38.16C121.52 38.16 120.282 37.2107 119.429 35.312C118.533 36.4427 117.744 37.2 117.061 37.584C116.4 37.968 115.621 38.16 114.725 38.16C113.424 38.16 112.346 37.68 111.493 36.72C110.661 35.7387 110.245 34.4693 110.245 32.912C110.245 31.2053 110.608 29.6267 111.333 28.176C112.058 26.704 113.05 25.5093 114.309 24.592C115.589 23.6533 117.018 23.0987 118.597 22.928C119.002 18.7893 119.77 15.2587 120.901 12.336C122.053 9.392 123.557 7.92 125.413 7.92C126.33 7.92 127.088 8.336 127.685 9.168C128.304 10 128.613 11.2587 128.613 12.944C128.613 15.3333 128.026 18.128 126.853 21.328C125.68 24.528 124.112 27.8133 122.149 31.184C122.234 32.4213 122.416 33.3067 122.693 33.84C122.992 34.3733 123.365 34.64 123.813 34.64C124.389 34.64 124.976 34.384 125.573 33.872C126.17 33.36 126.97 32.5067 127.973 31.312C128.229 31.0133 128.517 30.864 128.837 30.864ZM125.061 11.056C124.656 11.056 124.25 11.7813 123.845 13.232C123.44 14.6613 123.088 16.5387 122.789 18.864C122.512 21.1893 122.309 23.6213 122.181 26.16C124.57 20.9547 125.765 16.7733 125.765 13.616C125.765 12.8053 125.69 12.176 125.541 11.728C125.413 11.28 125.253 11.056 125.061 11.056ZM115.845 34.928C116.25 34.928 116.656 34.768 117.061 34.448C117.466 34.1067 117.978 33.488 118.597 32.592C118.384 31.44 118.277 30.1493 118.277 28.72C118.277 28.208 118.298 27.376 118.341 26.224C117.168 26.5867 116.186 27.376 115.397 28.592C114.629 29.7867 114.245 31.12 114.245 32.592C114.245 34.1493 114.778 34.928 115.845 34.928ZM129.402 38.16C128.591 38.16 128.015 37.7333 127.674 36.88C127.354 36.0267 127.194 34.6613 127.194 32.784C127.194 30.0107 127.588 27.376 128.378 24.88C128.57 24.2613 128.879 23.8133 129.306 23.536C129.754 23.2373 130.372 23.088 131.162 23.088C131.588 23.088 131.887 23.1413 132.058 23.248C132.228 23.3547 132.314 23.5573 132.314 23.856C132.314 24.1973 132.154 24.9653 131.834 26.16C131.62 27.0133 131.45 27.76 131.322 28.4C131.194 29.04 131.087 29.8293 131.002 30.768C131.706 28.9333 132.495 27.44 133.37 26.288C134.244 25.136 135.098 24.3147 135.93 23.824C136.783 23.3333 137.562 23.088 138.266 23.088C139.652 23.088 140.346 23.7813 140.346 25.168C140.346 25.4453 140.25 26.1173 140.058 27.184C139.887 28.0373 139.802 28.5707 139.802 28.784C139.802 29.5307 140.068 29.904 140.602 29.904C141.199 29.904 141.967 29.4347 142.906 28.496C143.183 28.2187 143.471 28.08 143.77 28.08C144.047 28.08 144.26 28.208 144.41 28.464C144.58 28.6987 144.666 29.0187 144.666 29.424C144.666 30.2133 144.452 30.832 144.026 31.28C143.428 31.8987 142.724 32.432 141.914 32.88C141.124 33.3067 140.282 33.52 139.386 33.52C138.255 33.52 137.391 33.232 136.794 32.656C136.218 32.08 135.93 31.3013 135.93 30.32C135.93 30 135.962 29.68 136.026 29.36C136.068 28.9333 136.09 28.6453 136.09 28.496C136.09 28.1547 135.972 27.984 135.738 27.984C135.418 27.984 134.991 28.3467 134.458 29.072C133.946 29.776 133.434 30.7147 132.922 31.888C132.41 33.0613 131.994 34.2987 131.674 35.6C131.439 36.6027 131.162 37.2853 130.842 37.648C130.543 37.9893 130.063 38.16 129.402 38.16ZM143.964 38.16C143.154 38.16 142.578 37.7333 142.236 36.88C141.916 36.0267 141.756 34.6613 141.756 32.784C141.756 30.0107 142.151 27.376 142.94 24.88C143.132 24.2613 143.442 23.8133 143.868 23.536C144.316 23.2373 144.935 23.088 145.724 23.088C146.151 23.088 146.45 23.1413 146.62 23.248C146.791 23.3547 146.876 23.5573 146.876 23.856C146.876 24.1973 146.716 24.9653 146.396 26.16C146.183 27.0133 146.012 27.76 145.884 28.4C145.756 29.0187 145.65 29.7973 145.564 30.736C146.14 29.072 146.823 27.664 147.612 26.512C148.423 25.36 149.244 24.5067 150.076 23.952C150.93 23.376 151.73 23.088 152.476 23.088C153.223 23.088 153.746 23.2587 154.044 23.6C154.364 23.9413 154.524 24.464 154.524 25.168C154.524 25.8507 154.322 27.088 153.916 28.88C153.746 29.648 153.628 30.224 153.564 30.608C154.631 27.984 155.815 26.0747 157.116 24.88C158.418 23.6853 159.634 23.088 160.764 23.088C162.151 23.088 162.844 23.7813 162.844 25.168C162.844 26 162.61 27.504 162.14 29.68C161.735 31.536 161.532 32.7627 161.532 33.36C161.532 34.2133 161.842 34.64 162.46 34.64C162.887 34.64 163.388 34.384 163.964 33.872C164.562 33.3387 165.351 32.4853 166.332 31.312C166.588 31.0133 166.876 30.864 167.196 30.864C167.474 30.864 167.687 30.992 167.836 31.248C168.007 31.504 168.092 31.856 168.092 32.304C168.092 33.1573 167.89 33.8187 167.484 34.288C166.567 35.4187 165.575 36.3467 164.508 37.072C163.463 37.7973 162.268 38.16 160.924 38.16C159.836 38.16 159.015 37.8507 158.46 37.232C157.906 36.592 157.628 35.6747 157.628 34.48C157.628 33.8827 157.778 32.816 158.076 31.28C158.354 29.936 158.492 29.008 158.492 28.496C158.492 28.1547 158.375 27.984 158.14 27.984C157.863 27.984 157.468 28.3467 156.956 29.072C156.444 29.776 155.932 30.7147 155.42 31.888C154.908 33.0613 154.492 34.2987 154.172 35.6C153.938 36.624 153.66 37.3067 153.34 37.648C153.042 37.9893 152.551 38.16 151.868 38.16C151.164 38.16 150.631 37.8293 150.268 37.168C149.927 36.4853 149.756 35.664 149.756 34.704C149.756 33.8933 149.863 32.72 150.076 31.184C150.247 29.8187 150.332 28.9227 150.332 28.496C150.332 28.1547 150.215 27.984 149.98 27.984C149.66 27.984 149.255 28.368 148.764 29.136C148.274 29.904 147.794 30.8853 147.324 32.08C146.876 33.2747 146.514 34.448 146.236 35.6C146.002 36.6027 145.724 37.2853 145.404 37.648C145.106 37.9893 144.626 38.16 143.964 38.16ZM181.825 28.176C182.102 28.176 182.315 28.3147 182.465 28.592C182.614 28.8693 182.689 29.2213 182.689 29.648C182.689 30.672 182.379 31.28 181.761 31.472C180.481 31.92 179.073 32.176 177.537 32.24C177.131 34.032 176.331 35.472 175.137 36.56C173.942 37.6267 172.587 38.16 171.073 38.16C169.793 38.16 168.694 37.8507 167.777 37.232C166.881 36.6133 166.198 35.792 165.729 34.768C165.259 33.744 165.025 32.6347 165.025 31.44C165.025 29.8187 165.334 28.3787 165.953 27.12C166.571 25.84 167.425 24.848 168.513 24.144C169.601 23.4187 170.806 23.056 172.129 23.056C173.75 23.056 175.051 23.6213 176.033 24.752C177.035 25.8613 177.622 27.2373 177.793 28.88C178.795 28.816 179.99 28.6027 181.377 28.24C181.547 28.1973 181.697 28.176 181.825 28.176ZM171.329 34.768C172.011 34.768 172.598 34.4907 173.089 33.936C173.601 33.3813 173.942 32.5813 174.113 31.536C173.451 31.088 172.939 30.5013 172.577 29.776C172.235 29.0507 172.065 28.2827 172.065 27.472C172.065 27.1307 172.097 26.7893 172.161 26.448H172.001C171.147 26.448 170.433 26.864 169.857 27.696C169.302 28.5067 169.025 29.6587 169.025 31.152C169.025 32.3253 169.249 33.2213 169.697 33.84C170.166 34.4587 170.71 34.768 171.329 34.768ZM195.027 30.864C195.304 30.864 195.517 30.992 195.667 31.248C195.837 31.504 195.923 31.856 195.923 32.304C195.923 33.1573 195.72 33.8187 195.315 34.288C194.397 35.4187 193.395 36.3467 192.307 37.072C191.219 37.7973 189.971 38.16 188.563 38.16C184.211 38.16 182.035 35.0987 182.035 28.976C182.035 28.0373 182.067 27.088 182.131 26.128H180.883C180.243 26.128 179.805 26.0107 179.571 25.776C179.357 25.5413 179.251 25.168 179.251 24.656C179.251 23.4613 179.731 22.864 180.691 22.864H182.515C182.877 20.5173 183.432 18.3733 184.179 16.432C184.925 14.4907 185.821 12.944 186.867 11.792C187.933 10.64 189.075 10.064 190.291 10.064C191.187 10.064 191.891 10.4587 192.403 11.248C192.915 12.0373 193.171 13.0293 193.171 14.224C193.171 17.5307 191.784 20.4107 189.011 22.864H192.595C192.936 22.864 193.181 22.9387 193.331 23.088C193.48 23.2373 193.555 23.5147 193.555 23.92C193.555 25.392 192.349 26.128 189.939 26.128H186.035C185.992 27.1947 185.971 28.0267 185.971 28.624C185.971 30.8427 186.227 32.4 186.739 33.296C187.272 34.192 188.104 34.64 189.235 34.64C190.152 34.64 190.963 34.3627 191.667 33.808C192.371 33.2533 193.203 32.4213 194.163 31.312C194.419 31.0133 194.707 30.864 195.027 30.864ZM189.427 13.136C189.107 13.136 188.744 13.5413 188.339 14.352C187.955 15.1413 187.581 16.2507 187.219 17.68C186.877 19.088 186.589 20.656 186.355 22.384C187.613 21.296 188.552 20.08 189.171 18.736C189.811 17.3707 190.131 16.1333 190.131 15.024C190.131 13.7653 189.896 13.136 189.427 13.136ZM204.773 31.824C205.051 31.824 205.264 31.952 205.413 32.208C205.584 32.464 205.669 32.816 205.669 33.264C205.669 34.032 205.488 34.6933 205.125 35.248C204.528 36.1653 203.739 36.88 202.757 37.392C201.797 37.904 200.645 38.16 199.301 38.16C197.253 38.16 195.664 37.552 194.533 36.336C193.403 35.0987 192.837 33.4347 192.837 31.344C192.837 29.872 193.147 28.5067 193.765 27.248C194.384 25.968 195.237 24.9547 196.325 24.208C197.435 23.4613 198.683 23.088 200.069 23.088C201.307 23.088 202.299 23.4613 203.045 24.208C203.792 24.9333 204.165 25.9253 204.165 27.184C204.165 28.656 203.632 29.9253 202.565 30.992C201.52 32.0373 199.728 32.8693 197.189 33.488C197.701 34.4693 198.565 34.96 199.781 34.96C200.656 34.96 201.371 34.7573 201.925 34.352C202.501 33.9467 203.163 33.264 203.909 32.304C204.165 31.984 204.453 31.824 204.773 31.824ZM199.525 26.224C198.736 26.224 198.064 26.6827 197.509 27.6C196.976 28.5173 196.709 29.6267 196.709 30.928V30.992C197.968 30.6933 198.96 30.2453 199.685 29.648C200.411 29.0507 200.773 28.3573 200.773 27.568C200.773 27.1627 200.656 26.8427 200.421 26.608C200.208 26.352 199.909 26.224 199.525 26.224Z" fill="#488FE0"/>
</svg>
